{
    "asset" : {
        "generator" : "Khronos glTF Blender I/O v1.8.19",
        "version" : "2.0"
    },
    "scene" : 0,
    "scenes" : [
        {
            "name" : "Scene",
            "nodes" : [
                0,
                1,
                2,
                3,
                4,
                5,
                6
            ]
        }
    ],
    "nodes" : [
        {
            "mesh" : 0,
            "name" : "Cube",
            "scale" : [
                2.180891752243042,
                0.08701348304748535,
                1
            ]
        },
        {
            "mesh" : 1,
            "name" : "Cube.001",
            "scale" : [
                2.1322574615478516,
                0.0850730612874031,
                0.9776998162269592
            ],
            "translation" : [
                0.9737524390220642,
                0.4198339879512787,
                0
            ]
        },
        {
            "mesh" : 2,
            "name" : "Cylinder",
            "rotation" : [
                0,
                0,
                -0.7071067690849304,
                0.7071068286895752
            ],
            "scale" : [
                0.23273897171020508,
                0.23273897171020508,
                0.23273897171020508
            ],
            "translation" : [
                2.2085013389587402,
                0.1716599017381668,
                0.35885921120643616
            ]
        },
        {
            "mesh" : 3,
            "name" : "Cube.002",
            "scale" : [
                2.180891752243042,
                0.08701348304748535,
                1
            ]
        },
        {
            "mesh" : 4,
            "name" : "Cylinder.001",
            "rotation" : [
                0,
                0,
                -0.7071067690849304,
                0.7071068286895752
            ],
            "scale" : [
                0.23273897171020508,
                0.23273897171020508,
                0.23273897171020508
            ],
            "translation" : [
                2.2085013389587402,
                0.1716599017381668,
                0.35885921120643616
            ]
        },
        {
            "mesh" : 5,
            "name" : "Cylinder.002",
            "rotation" : [
                0,
                0,
                -0.7071067690849304,
                0.7071068286895752
            ],
            "scale" : [
                0.23273897171020508,
                0.23273897171020508,
                0.23273897171020508
            ],
            "translation" : [
                2.2085013389587402,
                0.1716599017381668,
                -0.36016643047332764
            ]
        },
        {
            "mesh" : 6,
            "name" : "Cylinder.003",
            "rotation" : [
                0,
                0,
                -0.7071067690849304,
                0.7071068286895752
            ],
            "scale" : [
                0.23273897171020508,
                0.23273897171020508,
                0.23273897171020508
            ],
            "translation" : [
                2.2085013389587402,
                0.1716599017381668,
                -0.36016643047332764
            ]
        }
    ],
    "materials" : [
        {
            "doubleSided" : true,
            "name" : "nave",
            "pbrMetallicRoughness" : {
                "baseColorFactor" : [
                    0.9689322113990784,
                    0.9161274433135986,
                    1,
                    1
                ],
                "roughnessFactor" : 0.41284406185150146
            }
        },
        {
            "doubleSided" : true,
            "name" : "vidrio",
            "pbrMetallicRoughness" : {
                "baseColorFactor" : [
                    0,
                    0,
                    0,
                    1
                ],
                "metallicFactor" : 0,
                "roughnessFactor" : 0.027522936463356018
            }
        },
        {
            "doubleSided" : true,
            "name" : "reactor",
            "pbrMetallicRoughness" : {
                "baseColorFactor" : [
                    0.005280470009893179,
                    0.0049300482496619225,
                    0.004481698852032423,
                    1
                ],
                "metallicFactor" : 0,
                "roughnessFactor" : 0.5
            }
        },
        {
            "doubleSided" : true,
            "name" : "cofre",
            "pbrMetallicRoughness" : {
                "baseColorFactor" : [
                    0.8000000715255737,
                    0.026325371116399765,
                    0.13147564232349396,
                    1
                ],
                "roughnessFactor" : 0.6834862232208252
            }
        },
        {
            "doubleSided" : true,
            "name" : "Material.001",
            "pbrMetallicRoughness" : {
                "baseColorFactor" : [
                    0.8000000715255737,
                    0.5810922384262085,
                    0.03031756542623043,
                    1
                ],
                "metallicFactor" : 0,
                "roughnessFactor" : 0.5
            }
        },
        {
            "doubleSided" : true,
            "name" : "Material.002",
            "pbrMetallicRoughness" : {
                "baseColorFactor" : [
                    0.8000000715255737,
                    0.5810922384262085,
                    0.03031756542623043,
                    1
                ],
                "metallicFactor" : 0,
                "roughnessFactor" : 0.5
            }
        },
        {
            "doubleSided" : true,
            "name" : "reactor.001",
            "pbrMetallicRoughness" : {
                "baseColorFactor" : [
                    0.005280470009893179,
                    0.0049300482496619225,
                    0.004481698852032423,
                    1
                ],
                "metallicFactor" : 0,
                "roughnessFactor" : 0.5
            }
        }
    ],
    "meshes" : [
        {
            "name" : "Mesh",
            "primitives" : [
                {
                    "attributes" : {
                        "POSITION" : 0,
                        "NORMAL" : 1,
                        "TEXCOORD_0" : 2
                    },
                    "indices" : 3,
                    "material" : 0
                }
            ]
        },
        {
            "name" : "Mesh",
            "primitives" : [
                {
                    "attributes" : {
                        "POSITION" : 4,
                        "NORMAL" : 5,
                        "TEXCOORD_0" : 6
                    },
                    "indices" : 7,
                    "material" : 1
                }
            ]
        },
        {
            "name" : "Cylinder.001",
            "primitives" : [
                {
                    "attributes" : {
                        "POSITION" : 8,
                        "NORMAL" : 9,
                        "TEXCOORD_0" : 10
                    },
                    "indices" : 11,
                    "material" : 2
                }
            ]
        },
        {
            "name" : "Mesh",
            "primitives" : [
                {
                    "attributes" : {
                        "POSITION" : 12,
                        "NORMAL" : 13,
                        "TEXCOORD_0" : 14
                    },
                    "indices" : 15,
                    "material" : 3
                }
            ]
        },
        {
            "name" : "Cylinder.003",
            "primitives" : [
                {
                    "attributes" : {
                        "POSITION" : 16,
                        "NORMAL" : 17,
                        "TEXCOORD_0" : 18
                    },
                    "indices" : 19,
                    "material" : 4
                }
            ]
        },
        {
            "name" : "Cylinder.004",
            "primitives" : [
                {
                    "attributes" : {
                        "POSITION" : 20,
                        "NORMAL" : 21,
                        "TEXCOORD_0" : 22
                    },
                    "indices" : 19,
                    "material" : 5
                }
            ]
        },
        {
            "name" : "Cylinder.005",
            "primitives" : [
                {
                    "attributes" : {
                        "POSITION" : 23,
                        "NORMAL" : 24,
                        "TEXCOORD_0" : 25
                    },
                    "indices" : 11,
                    "material" : 6
                }
            ]
        }
    ],
    "accessors" : [
        {
            "bufferView" : 0,
            "componentType" : 5126,
            "count" : 2460,
            "max" : [
                0.992702305316925,
                5.826651573181152,
                2.0130667686462402
            ],
            "min" : [
                -0.99452805519104,
                -2.427734136581421,
                -2.0130667686462402
            ],
            "type" : "VEC3"
        },
        {
            "bufferView" : 1,
            "componentType" : 5126,
            "count" : 2460,
            "type" : "VEC3"
        },
        {
            "bufferView" : 2,
            "componentType" : 5126,
            "count" : 2460,
            "type" : "VEC2"
        },
        {
            "bufferView" : 3,
            "componentType" : 5123,
            "count" : 12000,
            "type" : "SCALAR"
        },
        {
            "bufferView" : 4,
            "componentType" : 5126,
            "count" : 82,
            "max" : [
                0.09639216214418411,
                0.7608926892280579,
                0.6334133148193359
            ],
            "min" : [
                -0.07651965320110321,
                -0.7631474137306213,
                -0.6334133148193359
            ],
            "type" : "VEC3"
        },
        {
            "bufferView" : 5,
            "componentType" : 5126,
            "count" : 82,
            "type" : "VEC3"
        },
        {
            "bufferView" : 6,
            "componentType" : 5126,
            "count" : 82,
            "type" : "VEC2"
        },
        {
            "bufferView" : 7,
            "componentType" : 5123,
            "count" : 336,
            "type" : "SCALAR"
        },
        {
            "bufferView" : 8,
            "componentType" : 5126,
            "count" : 400,
            "max" : [
                0.9749279022216797,
                1,
                1
            ],
            "min" : [
                -0.9749279022216797,
                -1,
                -1
            ],
            "type" : "VEC3"
        },
        {
            "bufferView" : 9,
            "componentType" : 5126,
            "count" : 400,
            "type" : "VEC3"
        },
        {
            "bufferView" : 10,
            "componentType" : 5126,
            "count" : 400,
            "type" : "VEC2"
        },
        {
            "bufferView" : 11,
            "componentType" : 5123,
            "count" : 624,
            "type" : "SCALAR"
        },
        {
            "bufferView" : 12,
            "componentType" : 5126,
            "count" : 81,
            "max" : [
                0.27271807193756104,
                4.38227653503418,
                0.3055555522441864
            ],
            "min" : [
                -0.9391417503356934,
                2.1311161518096924,
                -0.3055555522441864
            ],
            "type" : "VEC3"
        },
        {
            "bufferView" : 13,
            "componentType" : 5126,
            "count" : 81,
            "type" : "VEC3"
        },
        {
            "bufferView" : 14,
            "componentType" : 5126,
            "count" : 81,
            "type" : "VEC2"
        },
        {
            "bufferView" : 15,
            "componentType" : 5123,
            "count" : 384,
            "type" : "SCALAR"
        },
        {
            "bufferView" : 16,
            "componentType" : 5126,
            "count" : 14,
            "max" : [
                0.664854884147644,
                0.8416017293930054,
                0.6819528341293335
            ],
            "min" : [
                -0.664854884147644,
                0.8416017293930054,
                -0.681952953338623
            ],
            "type" : "VEC3"
        },
        {
            "bufferView" : 17,
            "componentType" : 5126,
            "count" : 14,
            "type" : "VEC3"
        },
        {
            "bufferView" : 18,
            "componentType" : 5126,
            "count" : 14,
            "type" : "VEC2"
        },
        {
            "bufferView" : 19,
            "componentType" : 5123,
            "count" : 36,
            "type" : "SCALAR"
        },
        {
            "bufferView" : 20,
            "componentType" : 5126,
            "count" : 14,
            "max" : [
                0.664854884147644,
                0.8416017293930054,
                0.6819528341293335
            ],
            "min" : [
                -0.664854884147644,
                0.8416017293930054,
                -0.681952953338623
            ],
            "type" : "VEC3"
        },
        {
            "bufferView" : 21,
            "componentType" : 5126,
            "count" : 14,
            "type" : "VEC3"
        },
        {
            "bufferView" : 22,
            "componentType" : 5126,
            "count" : 14,
            "type" : "VEC2"
        },
        {
            "bufferView" : 23,
            "componentType" : 5126,
            "count" : 400,
            "max" : [
                0.9749279022216797,
                1,
                1
            ],
            "min" : [
                -0.9749279022216797,
                -1,
                -1
            ],
            "type" : "VEC3"
        },
        {
            "bufferView" : 24,
            "componentType" : 5126,
            "count" : 400,
            "type" : "VEC3"
        },
        {
            "bufferView" : 25,
            "componentType" : 5126,
            "count" : 400,
            "type" : "VEC2"
        }
    ],
    "bufferViews" : [
        {
            "buffer" : 0,
            "byteLength" : 29520,
            "byteOffset" : 0
        },
        {
            "buffer" : 0,
            "byteLength" : 29520,
            "byteOffset" : 29520
        },
        {
            "buffer" : 0,
            "byteLength" : 19680,
            "byteOffset" : 59040
        },
        {
            "buffer" : 0,
            "byteLength" : 24000,
            "byteOffset" : 78720
        },
        {
            "buffer" : 0,
            "byteLength" : 984,
            "byteOffset" : 102720
        },
        {
            "buffer" : 0,
            "byteLength" : 984,
            "byteOffset" : 103704
        },
        {
            "buffer" : 0,
            "byteLength" : 656,
            "byteOffset" : 104688
        },
        {
            "buffer" : 0,
            "byteLength" : 672,
            "byteOffset" : 105344
        },
        {
            "buffer" : 0,
            "byteLength" : 4800,
            "byteOffset" : 106016
        },
        {
            "buffer" : 0,
            "byteLength" : 4800,
            "byteOffset" : 110816
        },
        {
            "buffer" : 0,
            "byteLength" : 3200,
            "byteOffset" : 115616
        },
        {
            "buffer" : 0,
            "byteLength" : 1248,
            "byteOffset" : 118816
        },
        {
            "buffer" : 0,
            "byteLength" : 972,
            "byteOffset" : 120064
        },
        {
            "buffer" : 0,
            "byteLength" : 972,
            "byteOffset" : 121036
        },
        {
            "buffer" : 0,
            "byteLength" : 648,
            "byteOffset" : 122008
        },
        {
            "buffer" : 0,
            "byteLength" : 768,
            "byteOffset" : 122656
        },
        {
            "buffer" : 0,
            "byteLength" : 168,
            "byteOffset" : 123424
        },
        {
            "buffer" : 0,
            "byteLength" : 168,
            "byteOffset" : 123592
        },
        {
            "buffer" : 0,
            "byteLength" : 112,
            "byteOffset" : 123760
        },
        {
            "buffer" : 0,
            "byteLength" : 72,
            "byteOffset" : 123872
        },
        {
            "buffer" : 0,
            "byteLength" : 168,
            "byteOffset" : 123944
        },
        {
            "buffer" : 0,
            "byteLength" : 168,
            "byteOffset" : 124112
        },
        {
            "buffer" : 0,
            "byteLength" : 112,
            "byteOffset" : 124280
        },
        {
            "buffer" : 0,
            "byteLength" : 4800,
            "byteOffset" : 124392
        },
        {
            "buffer" : 0,
            "byteLength" : 4800,
            "byteOffset" : 129192
        },
        {
            "buffer" : 0,
            "byteLength" : 3200,
            "byteOffset" : 133992
        }
    ],
    "buffers" : [
        {
            "byteLength" : 137192,
            "uri" : "data:application/octet-stream;base64,"
        }
    ]
}
